<mxfile modified="2021-06-10T07:14:40.901Z" host="app.diagrams.net" agent="5.0 (Windows NT 10.0; Win64; x64) AppleWebKit/537.36 (KHTML, like Gecko) Chrome/91.0.4472.77 Safari/537.36" etag="KkZATWcThI6Ti3mfdN0a" version="14.7.3" type="github">
  <diagram id="WI9T0HZ2pTsCkuznbFz-" name="Page-1">
    <mxGraphModel dx="1422" dy="762" grid="1" gridSize="10" guides="1" tooltips="1" connect="1" arrows="1" fold="1" page="1" pageScale="1" pageWidth="1169" pageHeight="827" math="0" shadow="0">
      <root>
        <mxCell id="0" />
        <mxCell id="1" parent="0" />
        <mxCell id="dN-64xtrmQ-bNJCFakk0-11" value="Vantive" style="aspect=fixed;html=1;points=[];align=center;image;fontSize=12;image=img/lib/mscae/Database_General.svg;" vertex="1" parent="1">
          <mxGeometry x="140" y="507" width="38" height="50" as="geometry" />
        </mxCell>
        <mxCell id="dN-64xtrmQ-bNJCFakk0-22" value="SMS Service" style="aspect=fixed;html=1;points=[];align=center;image;fontSize=12;image=img/lib/mscae/Kubernetes_Services.svg;fillColor=none;" vertex="1" parent="1">
          <mxGeometry x="659" y="190" width="50" height="37" as="geometry" />
        </mxCell>
        <mxCell id="dN-64xtrmQ-bNJCFakk0-23" value="Cloud File Storage" style="aspect=fixed;html=1;points=[];align=center;image;fontSize=12;image=img/lib/mscae/BlobBlock.svg;fillColor=none;" vertex="1" parent="1">
          <mxGeometry x="511" y="86" width="50" height="42" as="geometry" />
        </mxCell>
        <mxCell id="dN-64xtrmQ-bNJCFakk0-24" value="Schedule PC" style="aspect=fixed;html=1;points=[];align=center;image;fontSize=12;image=img/lib/mscae/Non_Azure_Machine.svg;fillColor=none;" vertex="1" parent="1">
          <mxGeometry x="159.5" y="374" width="31" height="50" as="geometry" />
        </mxCell>
        <mxCell id="dN-64xtrmQ-bNJCFakk0-26" value="Message Queue" style="aspect=fixed;html=1;points=[];align=center;image;fontSize=12;image=img/lib/mscae/Dedicated_Event_Hub.svg;fillColor=none;" vertex="1" parent="1">
          <mxGeometry x="511" y="227" width="50" height="48" as="geometry" />
        </mxCell>
        <mxCell id="dN-64xtrmQ-bNJCFakk0-56" style="edgeStyle=orthogonalEdgeStyle;rounded=0;orthogonalLoop=1;jettySize=auto;html=1;exitX=1;exitY=0.62;exitDx=0;exitDy=0;exitPerimeter=0;entryX=-0.065;entryY=0.76;entryDx=0;entryDy=0;entryPerimeter=0;" edge="1" parent="1" source="dN-64xtrmQ-bNJCFakk0-28" target="dN-64xtrmQ-bNJCFakk0-24">
          <mxGeometry relative="1" as="geometry">
            <mxPoint x="190" y="587" as="targetPoint" />
          </mxGeometry>
        </mxCell>
        <mxCell id="dN-64xtrmQ-bNJCFakk0-28" value="Control-M" style="aspect=fixed;pointerEvents=1;shadow=0;dashed=0;html=1;strokeColor=none;labelPosition=center;verticalLabelPosition=bottom;verticalAlign=top;align=center;fillColor=#00188D;shape=mxgraph.mscae.enterprise.application_server2" vertex="1" parent="1">
          <mxGeometry x="51" y="381" width="43" height="50" as="geometry" />
        </mxCell>
        <mxCell id="dN-64xtrmQ-bNJCFakk0-29" value="SMS Record&lt;br&gt;Enquiry Service" style="aspect=fixed;html=1;points=[];align=center;image;fontSize=12;image=img/lib/mscae/Kubernetes_Services.svg;fillColor=none;" vertex="1" parent="1">
          <mxGeometry x="599" y="594" width="50" height="37" as="geometry" />
        </mxCell>
        <mxCell id="dN-64xtrmQ-bNJCFakk0-30" value="SMS On-Premise &lt;br&gt;Proxy" style="aspect=fixed;html=1;points=[];align=center;image;fontSize=12;image=img/lib/mscae/Non_Azure_Machine.svg;fillColor=none;" vertex="1" parent="1">
          <mxGeometry x="230" y="78" width="31" height="50" as="geometry" />
        </mxCell>
        <mxCell id="dN-64xtrmQ-bNJCFakk0-57" value="" style="edgeStyle=orthogonalEdgeStyle;rounded=0;orthogonalLoop=1;jettySize=auto;html=1;" edge="1" parent="1" source="dN-64xtrmQ-bNJCFakk0-36" target="dN-64xtrmQ-bNJCFakk0-31">
          <mxGeometry relative="1" as="geometry" />
        </mxCell>
        <mxCell id="dN-64xtrmQ-bNJCFakk0-31" value="Local Shared Folder" style="aspect=fixed;html=1;points=[];align=center;image;fontSize=12;image=img/lib/mscae/BlobBlock.svg;fillColor=none;" vertex="1" parent="1">
          <mxGeometry x="150" y="230" width="50" height="42" as="geometry" />
        </mxCell>
        <mxCell id="dN-64xtrmQ-bNJCFakk0-53" style="edgeStyle=orthogonalEdgeStyle;rounded=0;orthogonalLoop=1;jettySize=auto;html=1;" edge="1" parent="1" source="dN-64xtrmQ-bNJCFakk0-33" target="dN-64xtrmQ-bNJCFakk0-11">
          <mxGeometry relative="1" as="geometry">
            <Array as="points">
              <mxPoint x="200" y="655" />
              <mxPoint x="200" y="540" />
            </Array>
          </mxGeometry>
        </mxCell>
        <mxCell id="dN-64xtrmQ-bNJCFakk0-33" value="CRS" style="aspect=fixed;html=1;points=[];align=center;image;fontSize=12;image=img/lib/mscae/Non_Azure_Machine.svg;fillColor=none;" vertex="1" parent="1">
          <mxGeometry x="140" y="630" width="31" height="50" as="geometry" />
        </mxCell>
        <mxCell id="dN-64xtrmQ-bNJCFakk0-37" value="" style="group" vertex="1" connectable="0" parent="1">
          <mxGeometry x="53" y="70" width="51" height="70" as="geometry" />
        </mxCell>
        <mxCell id="dN-64xtrmQ-bNJCFakk0-20" value="" style="aspect=fixed;html=1;points=[];align=center;image;fontSize=12;image=img/lib/mscae/Non_Azure_Machine.svg;fillColor=none;" vertex="1" parent="dN-64xtrmQ-bNJCFakk0-37">
          <mxGeometry width="31" height="50" as="geometry" />
        </mxCell>
        <mxCell id="dN-64xtrmQ-bNJCFakk0-35" value="" style="aspect=fixed;html=1;points=[];align=center;image;fontSize=12;image=img/lib/mscae/Non_Azure_Machine.svg;fillColor=none;" vertex="1" parent="dN-64xtrmQ-bNJCFakk0-37">
          <mxGeometry x="10" y="10" width="31" height="50" as="geometry" />
        </mxCell>
        <mxCell id="dN-64xtrmQ-bNJCFakk0-36" value="FWD Apps" style="aspect=fixed;html=1;points=[];align=center;image;fontSize=12;image=img/lib/mscae/Non_Azure_Machine.svg;fillColor=none;" vertex="1" parent="dN-64xtrmQ-bNJCFakk0-37">
          <mxGeometry x="20" y="20" width="31" height="50" as="geometry" />
        </mxCell>
        <mxCell id="dN-64xtrmQ-bNJCFakk0-38" value="User" style="aspect=fixed;html=1;points=[];align=center;image;fontSize=12;image=img/lib/mscae/Person.svg;fillColor=none;" vertex="1" parent="1">
          <mxGeometry x="50" y="631" width="37" height="50" as="geometry" />
        </mxCell>
        <mxCell id="dN-64xtrmQ-bNJCFakk0-41" value="Cloud&amp;nbsp;DB" style="aspect=fixed;html=1;points=[];align=center;image;fontSize=12;image=img/lib/mscae/Elastic_Database_Pools.svg;fillColor=none;" vertex="1" parent="1">
          <mxGeometry x="599" y="414" width="50" height="50" as="geometry" />
        </mxCell>
        <mxCell id="dN-64xtrmQ-bNJCFakk0-45" value="XGate SMS API" style="aspect=fixed;html=1;points=[];align=center;image;fontSize=12;image=img/lib/mscae/API_Management.svg;fillColor=none;" vertex="1" parent="1">
          <mxGeometry x="1030" y="216" width="50" height="42" as="geometry" />
        </mxCell>
        <mxCell id="dN-64xtrmQ-bNJCFakk0-46" value="AccessYou SMS API" style="aspect=fixed;html=1;points=[];align=center;image;fontSize=12;image=img/lib/mscae/API_Management.svg;fillColor=none;" vertex="1" parent="1">
          <mxGeometry x="1030" y="348" width="50" height="42" as="geometry" />
        </mxCell>
        <mxCell id="dN-64xtrmQ-bNJCFakk0-47" value="Others SMS API" style="aspect=fixed;html=1;points=[];align=center;image;fontSize=12;image=img/lib/mscae/API_Management.svg;fillColor=none;" vertex="1" parent="1">
          <mxGeometry x="1030" y="481" width="50" height="42" as="geometry" />
        </mxCell>
        <mxCell id="dN-64xtrmQ-bNJCFakk0-54" style="edgeStyle=orthogonalEdgeStyle;rounded=0;orthogonalLoop=1;jettySize=auto;html=1;entryX=-0.032;entryY=0.53;entryDx=0;entryDy=0;entryPerimeter=0;" edge="1" parent="1" source="dN-64xtrmQ-bNJCFakk0-38" target="dN-64xtrmQ-bNJCFakk0-33">
          <mxGeometry relative="1" as="geometry">
            <mxPoint x="208" y="665" as="sourcePoint" />
            <mxPoint x="157" y="655.5" as="targetPoint" />
          </mxGeometry>
        </mxCell>
        <mxCell id="dN-64xtrmQ-bNJCFakk0-55" style="edgeStyle=orthogonalEdgeStyle;rounded=0;orthogonalLoop=1;jettySize=auto;html=1;exitX=1.016;exitY=0.64;exitDx=0;exitDy=0;exitPerimeter=0;" edge="1" parent="1" source="dN-64xtrmQ-bNJCFakk0-24" target="dN-64xtrmQ-bNJCFakk0-11">
          <mxGeometry relative="1" as="geometry">
            <mxPoint x="171" y="378.5" as="sourcePoint" />
            <mxPoint x="251" y="378.5" as="targetPoint" />
            <Array as="points">
              <mxPoint x="230" y="406" />
              <mxPoint x="230" y="466" />
              <mxPoint x="159" y="466" />
            </Array>
          </mxGeometry>
        </mxCell>
        <mxCell id="dN-64xtrmQ-bNJCFakk0-58" value="" style="edgeStyle=orthogonalEdgeStyle;rounded=0;orthogonalLoop=1;jettySize=auto;html=1;exitX=1;exitY=0.26;exitDx=0;exitDy=0;exitPerimeter=0;" edge="1" parent="1" source="dN-64xtrmQ-bNJCFakk0-36" target="dN-64xtrmQ-bNJCFakk0-30">
          <mxGeometry relative="1" as="geometry">
            <mxPoint x="114" y="125" as="sourcePoint" />
            <mxPoint x="185" y="240" as="targetPoint" />
          </mxGeometry>
        </mxCell>
        <mxCell id="dN-64xtrmQ-bNJCFakk0-60" value="" style="aspect=fixed;html=1;points=[];align=center;image;fontSize=12;image=img/lib/mscae/Azure_Firewall.svg;fillColor=none;" vertex="1" parent="1">
          <mxGeometry x="302" y="350" width="50" height="50" as="geometry" />
        </mxCell>
        <mxCell id="dN-64xtrmQ-bNJCFakk0-61" value="" style="aspect=fixed;html=1;points=[];align=center;image;fontSize=12;image=img/lib/mscae/Azure_Firewall.svg;fillColor=none;" vertex="1" parent="1">
          <mxGeometry x="382" y="350" width="50" height="50" as="geometry" />
        </mxCell>
        <mxCell id="dN-64xtrmQ-bNJCFakk0-64" value="" style="edgeStyle=orthogonalEdgeStyle;rounded=0;orthogonalLoop=1;jettySize=auto;html=1;exitX=-0.129;exitY=0.82;exitDx=0;exitDy=0;exitPerimeter=0;entryX=0.74;entryY=-0.024;entryDx=0;entryDy=0;entryPerimeter=0;" edge="1" parent="1" source="dN-64xtrmQ-bNJCFakk0-30" target="dN-64xtrmQ-bNJCFakk0-31">
          <mxGeometry relative="1" as="geometry">
            <mxPoint x="114" y="125" as="sourcePoint" />
            <mxPoint x="185" y="230" as="targetPoint" />
          </mxGeometry>
        </mxCell>
        <mxCell id="dN-64xtrmQ-bNJCFakk0-65" value="" style="aspect=fixed;html=1;points=[];align=center;image;fontSize=12;image=img/lib/mscae/Azure_Firewall.svg;fillColor=none;" vertex="1" parent="1">
          <mxGeometry x="800" y="348" width="50" height="50" as="geometry" />
        </mxCell>
        <mxCell id="dN-64xtrmQ-bNJCFakk0-66" value="" style="aspect=fixed;html=1;points=[];align=center;image;fontSize=12;image=img/lib/mscae/Azure_Firewall.svg;fillColor=none;" vertex="1" parent="1">
          <mxGeometry x="880" y="348" width="50" height="50" as="geometry" />
        </mxCell>
      </root>
    </mxGraphModel>
  </diagram>
</mxfile>
